<svg id="visual" viewBox="0 0 900 600" width="900" height="600" xmlns="http://www.w3.org/2000/svg" xmlns:xlink="http://www.w3.org/1999/xlink" version="1.1"><path d="M0 563L21.5 561.3C43 559.7 86 556.3 128.8 548.7C171.7 541 214.3 529 257.2 529.8C300 530.7 343 544.3 385.8 545.7C428.7 547 471.3 536 514.2 533.8C557 531.7 600 538.3 642.8 538.8C685.7 539.3 728.3 533.7 771.2 531.2C814 528.7 857 529.3 878.5 529.7L900 530L900 601L878.5 601C857 601 814 601 771.2 601C728.3 601 685.7 601 642.8 601C600 601 557 601 514.2 601C471.3 601 428.7 601 385.8 601C343 601 300 601 257.2 601C214.3 601 171.7 601 128.8 601C86 601 43 601 21.5 601L0 601Z" fill="#0066FF" stroke-linecap="round" stroke-linejoin="miter"></path></svg>